<?xml version="1.0" encoding="UTF-8" standalone="no"?>
<svg xmlns="http://www.w3.org/2000/svg" width="1000" height="1000" viewBox="0 0 1000 1000">
  <path fill="#ffffff" d="M228.456 960.267c-12.653 0-24.216-5.053-32.682-13.518-8.466-8.466-13.518-20.029-13.518-32.682V85.933c0-12.653 5.052-24.216 13.518-32.682 8.466-8.466 20.029-13.518 32.682-13.518h543.088c12.653 0 24.216 5.052 32.682 13.518 8.466 8.466 13.518 20.029 13.518 32.682v828.134c0 12.653-5.052 24.216-13.518 32.682-8.466 8.465-20.029 13.518-32.682 13.518H228.456zm0-40.741h543.088c1.581 0 3.163-.791 3.954-2.372.791-1.581 1.582-3.163 1.582-3.954V85.933c0-1.581-.791-3.163-1.582-3.954-.791-1.581-2.373-2.372-3.954-2.372H228.456c-1.581 0-3.163.791-3.954 2.372-.791 1.581-1.582 3.163-1.582 3.954v828.134c0 1.581.791 3.163 1.582 3.954.791 1.581 2.373 2.372 3.954 2.372z"/>
  <path fill="#ffffff" d="M500 563.01c-69.593 0-126.533-56.94-126.533-126.533S430.407 309.944 500 309.944s126.533 56.94 126.533 126.533S569.593 563.01 500 563.01zm0-40.741c47.683 0 85.792-38.109 85.792-85.792s-38.109-85.792-85.792-85.792-85.792 38.109-85.792 85.792 38.109 85.792 85.792 85.792z"/>
  <path fill="#ffffff" d="M500 690.067c-139.186 0-253.066-113.88-253.066-253.066S360.814 183.935 500 183.935s253.066 113.88 253.066 253.066S639.186 690.067 500 690.067zm0-40.741c117.276 0 212.325-95.049 212.325-212.325S617.276 224.676 500 224.676 287.675 319.725 287.675 437.001 382.724 649.326 500 649.326z"/>
</svg>
